<svg xmlns="http://www.w3.org/2000/svg" width="100" height="100" viewBox="0,0,100,100">
    <path
        fill="white"
        stroke="white"
        d="
            M 46,49 44,52
            Q 76,41 80,48
            Q 81,50 77,52
            L 62,59
            Q 61,60 64,61
            Q 80,56 90,57
            Q 103,60 90,66
            Q 60,79 20,71
            Q -12,64 20,46
            Q 60,28 97,18
            Q 82,19 77,21
            Q 0,43 2,60  
            Q 2,72 50,75
            Q 80,76 95,66
            Q 109,55 77,55
            Q 90,48 75,44.5
            Q 60,43 46,49 z     "
         />
    <path
        fill="white"
        stroke="white"
        d="
            M 53,23 55,24
            Q 56,22 57,21
            Q 64,19 21,83
            A 1,1 0,0,0 23,84
            Q 67,20 60,17
            Q 55,17 53,23 Z
        "
         />
    
</svg>